<?xml version="1.0" standalone="no"?>
<!DOCTYPE svg PUBLIC "-//W3C//DTD SVG 20010904//EN"
 "http://www.w3.org/TR/2001/REC-SVG-20010904/DTD/svg10.dtd">
<svg version="1.0" xmlns="http://www.w3.org/2000/svg"
 width="1280.000000pt" height="1209.000000pt" viewBox="0 0 1280.000000 1209.000000"
 preserveAspectRatio="xMidYMid meet">
<g transform="translate(0.000000,1209.000000) scale(0.100000,-0.100000)"
fill="#000000" stroke="none">
<path d="M2489 12067 c-37 -13 -84 -35 -105 -50 -71 -49 -2310 -2299 -2332
-2343 -11 -22 -28 -70 -38 -105 -16 -62 -16 -68 1 -132 10 -36 29 -86 44 -111
28 -49 2192 -2644 2262 -2713 143 -142 381 -132 515 22 25 27 54 75 67 105
l22 55 5 993 c4 868 7 994 20 1002 9 6 1759 10 4680 10 4153 0 4672 2 4724 15
154 40 303 159 370 296 36 74 76 210 76 261 0 51 -40 198 -72 266 -61 128
-199 244 -357 300 -42 16 -417 17 -4736 22 l-4690 5 -2 908 c-1 1013 2 965
-72 1063 -47 63 -115 109 -200 134 -84 25 -99 24 -182 -3z"/>
<path d="M10122 5564 c-89 -23 -153 -68 -201 -138 -65 -95 -63 -52 -64 -1053
l-2 -908 -4685 -5 -4685 -5 -65 -22 c-205 -70 -345 -226 -399 -443 -26 -102
-26 -124 -1 -225 58 -232 211 -394 425 -450 53 -13 552 -15 4726 -15 4230 0
4669 -1 4683 -16 14 -14 16 -115 16 -968 0 -642 4 -972 11 -1012 14 -75 51
-144 105 -194 52 -48 102 -74 187 -96 66 -18 67 -18 139 5 40 13 94 36 120 53
36 23 308 343 1172 1378 618 741 1134 1366 1145 1387 11 22 27 69 37 104 16
63 16 68 -1 133 -10 38 -35 94 -56 125 -43 65 -2274 2296 -2330 2329 -43 26
-140 52 -189 51 -19 0 -59 -7 -88 -15z"/>
</g>
</svg>
